PathFileType	4	(X/Y/Z)	Patient3_R_KneeIso_Processed.trc
DataRate	CameraRate	NumFrames	NumMarkers	Units	OrigDataRate	OrigDataStartFrame	OrigNumFrames
100.000000000000	100.000000000000	4	33	mm	100.000000000000	113	       301
Frame#	Time	L.Toe			Neck			R.Toe			R.Shoulder			L.Wrist			L.Shank.Lateral			L.Elbow			R.Shank.Lateral			L.Shoulder			R.Midfoot.Lateral			L.Midfoot.Superior			R.Midfoot.Superior			R.Heel			R.Thigh.Lateral			L.Heel			R.Patella			L.Midfoot.Lateral			R.Elbow			R.Wrist			R.Shank.Inferior			Sternum			R.Thigh.Inferior			L.Shank.Inferior			R.Shank.Superior			L.Thigh.Superior			R.Thigh.Superior			R.Asis			L.Asis			L.Shank.Superior			L.Patella			Sacral			L.Thigh.Lateral			L.Thigh.Inferior			
		X1	Y1	Z1	X2	Y2	Z2	X3	Y3	Z3	X4	Y4	Z4	X5	Y5	Z5	X6	Y6	Z6	X7	Y7	Z7	X8	Y8	Z8	X9	Y9	Z9	X10	Y10	Z10	X11	Y11	Z11	X12	Y12	Z12	X13	Y13	Z13	X14	Y14	Z14	X15	Y15	Z15	X16	Y16	Z16	X17	Y17	Z17	X18	Y18	Z18	X19	Y19	Z19	X20	Y20	Z20	X21	Y21	Z21	X22	Y22	Z22	X23	Y23	Z23	X24	Y24	Z24	X25	Y25	Z25	X26	Y26	Z26	X27	Y27	Z27	X28	Y28	Z28	X29	Y29	Z29	X30	Y30	Z30	X31	Y31	Z31	X32	Y32	Z32	X33	Y33	Z33	

113	2.120000000000	650.216621410245	43.200711671639	367.224449106977	443.065742495623	1479.704458514231	353.531231577885	230.726571777819	208.994177201774	645.968578183547	487.237531670836	1460.693603446766	498.692416902414	516.853710823411	1068.204915602224	-42.232893209751	416.775943782779	322.451976060783	296.778484526910	324.534830291309	1132.351367580679	117.562571962067	442.509201091000	519.452089461440	645.392114702076	470.981460036545	1440.044572413875	206.988684819736	137.838740126233	404.295877093591	652.987334221461	531.798030997116	89.750131842946	389.277184988252	227.224251964231	339.819835208947	616.320673248976	108.695475273805	472.757135518261	579.425022875797	559.834479199052	692.173268760838	618.434829222803	363.503754268316	32.909807472837	437.621293806372	644.950465589856	493.125546228691	571.073961625195	434.917329914269	27.151335993454	364.954775472749	519.414980953897	1156.990784957878	674.255881546353	650.576683813997	1240.001342110888	475.319586069619	332.140119432116	416.122711518614	606.819239039012	581.873579964157	1386.402530530572	355.180481681793	651.994835565771	635.660847354162	557.934591018313	491.613526619002	229.602510671817	364.521317070458	505.628312780731	442.183095327398	603.595417070914	601.612132628082	724.119866489290	282.772164392404	636.065423503029	748.503126478276	552.059609020008	562.599356102544	995.060568260778	522.130278277129	567.092326279467	955.082978794164	260.946001834670	510.422405692760	381.042935147934	328.758233696465	554.387219558231	490.653256148909	336.449203508791	393.528853190605	999.621765512891	391.798338426764	495.526830793861	652.731590244135	252.482383656587	572.848819632202	601.107349843907	309.206315441390	
114	2.130000000000	650.229446813720	43.144483776289	367.225140881132	443.614541598703	1479.731840239774	353.623335930732	224.644594111094	215.166257823741	646.604902398352	487.869370609321	1460.713048263467	498.763621154177	516.942914466721	1068.374514617632	-42.160268585836	416.877604409717	322.428288484034	296.794160528687	324.735434160937	1132.457506750212	117.779730833118	441.781635778575	521.824611507514	645.775547773063	471.442754963037	1440.058272644705	207.062743068594	135.212185159490	412.077771471130	653.154647731744	531.807210669746	89.726505768535	389.285893114721	223.517096874085	345.998486678315	616.756566980521	107.357247071438	480.896131534549	579.431237283103	559.439270517184	692.134024255220	618.786603043801	363.506751180516	32.910078123521	437.618674161747	643.795365674824	492.577833598744	571.600073913156	434.916000333229	27.150229721400	364.947490544222	520.039317189484	1157.016674834894	674.332294135277	651.098758096393	1239.960384015520	475.307009255171	329.703986327738	420.407094031300	607.136236865896	582.384934449237	1386.375387223333	355.203926397426	651.529641041608	635.311574699099	558.324050777853	491.649762740228	229.598387491293	364.574169007173	503.653405949534	443.467671485734	604.121461466179	601.746905232746	723.989709002418	282.955072437018	635.790665859295	748.187232830493	552.362780153236	562.867214445249	994.969763158871	522.265824213108	567.454347352824	954.953131920553	261.073079041897	510.493110476297	381.058583920235	328.878047615751	554.360541578229	490.583736369947	336.616604608202	393.785259821805	999.848568652002	391.765511748680	495.622034503479	652.704185508255	252.560451758580	572.969400525474	601.001249460319	309.340042078753	
115	2.140000000000	650.241723423192	43.089967534374	367.226598229464	444.162882531901	1479.762362349666	353.709705357856	218.737228539032	221.384489175312	647.238378031461	488.489882994274	1460.735122935673	498.832023986552	517.031178001952	1068.537222618273	-42.094445958873	416.981533813587	322.406192234796	296.808515957921	324.935669045914	1132.570623583776	117.986800950958	441.104787947448	524.197838411783	646.147620875830	471.908871401744	1440.075039797547	207.133724147191	132.749003240076	419.830295276362	653.284288987505	531.815984225902	89.704786952982	389.293590214467	219.970667981674	352.184198560064	617.179301552486	106.179125202790	488.966301213594	579.387562420982	559.051712267140	692.108565561817	619.142651655066	363.509365338937	32.911261766112	437.615126418551	642.656116856582	492.047361271640	572.121463742091	434.914605203205	27.148994627832	364.940211644464	520.625085459383	1157.042306193129	674.406938733839	651.603123723420	1239.915411577281	475.303790942763	327.374336170410	424.688076578325	607.433840340417	582.891591898282	1386.347240182694	355.230945480202	651.072103088832	634.983503701695	558.709989900905	491.685446215509	229.594335205188	364.626689267112	501.728894591983	444.776230535038	604.641111096030	601.874622171295	723.863195796839	283.151429883581	635.510337076688	747.889166039006	552.666399299440	563.116095534520	994.884967272749	522.403756295638	567.808952753756	954.823207208527	261.204534733960	510.565575797915	381.075393613633	328.997780672327	554.337348808095	490.515395326167	336.786959181840	394.016919609590	1000.084605185922	391.724348498270	495.716916601232	652.677221630945	252.636640906254	573.082014017668	600.896895753534	309.485349377573	
116	2.150000000000	650.253420699464	43.037781938282	367.228787030904	444.709803078504	1479.796363188475	353.790624517497	213.016392387559	227.636423897111	647.867405630803	489.097755511296	1460.759841232818	498.897672067971	517.119608393554	1068.691831010087	-42.035679464996	417.085782809373	322.386409828659	296.820965216983	325.136390489287	1132.691140664415	118.182963270862	440.483015024416	526.569400346118	646.503369534624	472.379048043074	1440.095767422423	207.201676149162	130.453462862776	427.540678909887	653.372508810042	531.824398866599	89.685294282404	389.300099071611	216.589774426930	358.365008915095	617.584136886444	105.162537780836	496.954082268548	579.289686921948	558.675779857525	692.097417427284	619.501313114027	363.511613053690	32.913289325144	437.610787183413	641.540670933851	491.537230360374	572.634556483843	434.913221759032	27.147679602736	364.933011695477	521.170481676068	1157.067095915233	674.478935308970	652.088769448405	1239.866732875777	475.309839384725	325.157774778333	428.959510540242	607.710376680091	583.392773123823	1386.318749188680	355.261562169288	650.626460605740	634.678284190122	559.089668258775	491.720048867588	229.590568720644	364.677515307846	499.862303182577	446.107226222908	605.151502545280	601.993597209422	723.741231958405	283.357316380343	635.228576068344	747.610858190069	552.968024918919	563.345695644879	994.806169880633	522.542736597749	568.153605799104	954.693596352660	261.339154890454	510.638629557596	381.093039055081	329.115156951876	554.318320788161	490.449094844116	336.957455689379	394.224025226160	1000.330195210614	391.676192840800	495.809547493731	652.651190292190	252.710044376309	573.186311739556	600.796043721513	309.638427072681	
